<?xml version="1.0" encoding="iso-8859-1"?>
<!-- Generator: Adobe Illustrator 19.0.0, SVG Export Plug-In . SVG Version: 6.00 Build 0)  -->
<svg version="1.1" id="Layer_1" xmlns="http://www.w3.org/2000/svg" xmlns:xlink="http://www.w3.org/1999/xlink" x="0px" y="0px"
	 viewBox="0 0 496 496" style="enable-background:new 0 0 496 496;" xml:space="preserve">
<g>
	<g>
		<g>
			<path d="M472,32h-72V0H100.688L0,100.688V496h400V192h72c13.232,0,24-10.768,24-24V56C496,42.768,485.232,32,472,32z M96,27.312
				V96H27.312L96,27.312z M384,480H16V112h96V16h272v16H184c-13.232,0-24,10.768-24,24v112c0,13.232,10.768,24,24,24h200V480z
				 M480,168c0,4.416-3.592,8-8,8H184c-4.408,0-8-3.584-8-8V56c0-4.416,3.592-8,8-8h288c4.408,0,8,3.584,8,8V168z"/>
			<rect x="32" y="128" width="16" height="16"/>
			<rect x="64" y="128" width="16" height="16"/>
			<rect x="32" y="160" width="16" height="16"/>
			<polygon points="400,64 384,64 384,160 464,160 464,144 400,144 			"/>
			<polygon points="328,90.664 308,64 288,64 288,160 304,160 304,85.336 328,117.336 352,85.336 352,160 368,160 368,64 348,64 			
				"/>
			<path d="M32,464h336V208H32V464z M48,224h304v224H48V224z"/>
			<polygon points="127.024,251.832 112.976,244.168 62.888,336 112.976,427.832 127.024,420.168 81.112,336 			"/>
			<polygon points="272.976,251.832 318.888,336 272.976,420.168 287.024,427.832 337.112,336 287.024,244.168 			"/>
			<path d="M200,248c-48.52,0-88,39.48-88,88c0,48.52,39.48,88,88,88s88-39.48,88-88C288,287.48,248.52,248,200,248z
				 M174.768,268.648c-4.752,5.92-9.512,13.248-13.472,22.12c-5.384-1.608-9.68-3.336-12.904-4.864
				C155.736,278.344,164.728,272.432,174.768,268.648z M138.448,298.848c4.072,2.144,9.896,4.72,17.44,7.024
				c-1.816,6.696-3.016,14.112-3.536,22.128h-23.88C129.648,317.408,133.168,307.544,138.448,298.848z M128.472,344h23.88v0
				c0.52,8.016,1.72,15.432,3.536,22.128c-7.544,2.312-13.368,4.88-17.44,7.024C133.176,364.448,129.656,354.584,128.472,344z
				 M148.392,386.096c3.224-1.528,7.52-3.256,12.904-4.864c3.96,8.88,8.728,16.2,13.472,22.12
				C164.728,399.568,155.736,393.656,148.392,386.096z M192,398.888c-4.808-5.04-10.2-12.096-14.68-21.2
				c4.48-0.688,9.344-1.216,14.68-1.48V398.888z M192,360.184c-7.568,0.336-14.376,1.152-20.496,2.232
				c-1.544-5.592-2.656-11.72-3.16-18.416H192V360.184z M192,328h-23.656c0.504-6.696,1.616-12.824,3.168-18.416
				c6.112,1.088,12.912,1.896,20.488,2.232V328z M192,295.792c-5.336-0.264-10.2-0.792-14.68-1.48
				c4.48-9.112,9.872-16.168,14.68-21.208V295.792z M271.528,328h-23.88c-0.52-8.016-1.72-15.432-3.536-22.128
				c7.544-2.312,13.368-4.88,17.44-7.024C266.824,307.552,270.344,317.416,271.528,328z M251.608,285.904
				c-3.224,1.528-7.52,3.256-12.904,4.864c-3.96-8.88-8.728-16.2-13.472-22.12C235.272,272.432,244.264,278.344,251.608,285.904z
				 M208,273.112c4.808,5.04,10.2,12.088,14.68,21.2c-4.48,0.688-9.344,1.216-14.68,1.48V273.112z M208,311.816
				c7.568-0.336,14.376-1.152,20.496-2.232c1.552,5.584,2.656,11.712,3.168,18.416H208V311.816z M208,344h23.656
				c-0.504,6.696-1.616,12.824-3.168,18.416c-6.112-1.088-12.912-1.896-20.488-2.232V344z M208,398.896v-22.688
				c5.336,0.264,10.2,0.792,14.68,1.48C218.2,386.8,212.8,393.856,208,398.896z M225.232,403.352
				c4.752-5.928,9.512-13.248,13.472-22.12c5.384,1.608,9.68,3.336,12.904,4.864C244.264,393.656,235.272,399.568,225.232,403.352z
				 M261.552,373.152c-4.072-2.144-9.896-4.72-17.44-7.024c1.816-6.696,3.016-14.112,3.536-22.128h23.88
				C270.352,354.592,266.832,364.456,261.552,373.152z"/>
			<polygon points="256,76.688 232,100.688 208,76.688 208,64 192,64 192,83.312 220.688,112 192,140.688 192,160 208,160 
				208,147.312 232,123.312 256,147.312 256,160 272,160 272,140.688 243.312,112 272,83.312 272,64 256,64 			"/>
		</g>
	</g>
</g>
<g>
</g>
<g>
</g>
<g>
</g>
<g>
</g>
<g>
</g>
<g>
</g>
<g>
</g>
<g>
</g>
<g>
</g>
<g>
</g>
<g>
</g>
<g>
</g>
<g>
</g>
<g>
</g>
<g>
</g>
</svg>
