<?xml version="1.0" encoding="iso-8859-1"?>
<!-- Generator: Adobe Illustrator 19.0.0, SVG Export Plug-In . SVG Version: 6.00 Build 0)  -->
<svg version="1.1" id="Capa_1" xmlns="http://www.w3.org/2000/svg" xmlns:xlink="http://www.w3.org/1999/xlink" x="0px" y="0px"
	 viewBox="0 0 360 360" style="enable-background:new 0 0 360 360;" xml:space="preserve">
<g id="XMLID_1046_">
	<path id="XMLID_1047_" d="M345.313,124.239h-50.625V77.834L211.665,0H14.687v360h280v-53.034h50.625V124.239z M315.312,276.966
		h-210V154.239h210V276.966z"/>
	<path id="XMLID_1050_" d="M143.566,228.114h22.816l6.072,16.284h13.064l-24.84-65.32h-11.224l-24.932,65.32h13.064L143.566,228.114
		z M155.066,193.522l9.016,25.668h-18.4L155.066,193.522z"/>
	<path id="XMLID_1053_" d="M214.499,233.726c-2.516,0-4.968-0.306-7.36-0.92c-2.392-0.613-4.57-1.364-6.532-2.254
		c-1.963-0.888-3.666-1.778-5.106-2.668c-1.442-0.888-2.438-1.61-2.99-2.162l-5.612,10.948c3.802,2.7,8.096,4.784,12.88,6.256
		c4.784,1.472,9.628,2.208,14.536,2.208c3.189,0,6.24-0.354,9.154-1.058c2.912-0.705,5.488-1.824,7.728-3.358
		c2.238-1.532,4.017-3.542,5.336-6.026c1.318-2.484,1.978-5.474,1.978-8.97c0-3.004-0.492-5.535-1.472-7.59
		c-0.982-2.054-2.378-3.818-4.186-5.29c-1.81-1.472-4.018-2.698-6.624-3.68c-2.607-0.98-5.506-1.9-8.694-2.76
		c-2.454-0.612-4.616-1.196-6.486-1.748c-1.872-0.552-3.419-1.164-4.646-1.84c-1.228-0.674-2.162-1.456-2.806-2.346
		c-0.644-0.888-0.966-2.008-0.966-3.358c0-2.33,0.858-4.14,2.576-5.428c1.716-1.288,4.324-1.932,7.82-1.932
		c1.962,0,3.895,0.246,5.796,0.736c1.9,0.492,3.664,1.09,5.29,1.794c1.625,0.706,3.004,1.426,4.14,2.162
		c1.134,0.736,1.916,1.32,2.346,1.748l5.612-10.304c-2.884-1.962-6.256-3.664-10.12-5.106c-3.864-1.44-8.096-2.162-12.696-2.162
		c-3.312,0-6.41,0.445-9.292,1.334c-2.884,0.89-5.414,2.193-7.59,3.91c-2.178,1.718-3.88,3.864-5.106,6.44
		c-1.228,2.576-1.84,5.52-1.84,8.832c0,2.516,0.382,4.678,1.15,6.486c0.767,1.81,1.917,3.404,3.45,4.784
		c1.532,1.38,3.45,2.576,5.75,3.588c2.3,1.012,5.014,1.948,8.142,2.806c2.576,0.736,4.906,1.412,6.992,2.024
		c2.084,0.614,3.864,1.288,5.336,2.024c1.472,0.736,2.606,1.595,3.404,2.576c0.796,0.982,1.196,2.178,1.196,3.588
		C224.987,231.488,221.492,233.726,214.499,233.726z"/>
	<path id="XMLID_1054_" d="M260.774,222.502h15.456c3.004,0,5.765-0.612,8.28-1.84c2.514-1.227,4.66-2.852,6.44-4.876
		c1.778-2.024,3.158-4.338,4.14-6.946c0.98-2.606,1.472-5.29,1.472-8.05c0-2.636-0.522-5.258-1.564-7.866
		c-1.043-2.606-2.484-4.936-4.324-6.992c-1.84-2.054-4.033-3.71-6.578-4.968c-2.546-1.256-5.322-1.886-8.326-1.886h-27.692v65.32
		h12.696V222.502z M260.774,190.21h14.168c1.104,0,2.192,0.23,3.266,0.69c1.072,0.46,2.008,1.15,2.806,2.07
		c0.796,0.92,1.44,2.04,1.932,3.358c0.49,1.319,0.736,2.806,0.736,4.462c0,3.252-0.782,5.828-2.346,7.728
		c-1.564,1.902-3.512,2.852-5.842,2.852h-14.72V190.21z"/>
</g>
<g>
</g>
<g>
</g>
<g>
</g>
<g>
</g>
<g>
</g>
<g>
</g>
<g>
</g>
<g>
</g>
<g>
</g>
<g>
</g>
<g>
</g>
<g>
</g>
<g>
</g>
<g>
</g>
<g>
</g>
</svg>
